<?xml version="1.0" encoding="UTF-8" standalone="no"?>
<svg
   xmlns:svg="http://www.w3.org/2000/svg"
   xmlns="http://www.w3.org/2000/svg"
   xmlns:xlink="http://www.w3.org/1999/xlink"
   version="1.1"
   width="114"
   height="22"
   id="svg2">
  <defs
     id="defs8">
    <clipPath
       id="clipPath6">
      <rect
         width="90"
         height="21.906"
         x="20"
         y="0.051"
         id="rect4" />
    </clipPath>
  </defs>
  <path
     d="M 4.873,11.003 0.1,16.48 h 7.01 l 4.758,-5.477 z M 7.11,5.527 11.867,0.051 16.626,5.528 21.385,0.051 4.873,0.05 0.1,5.527"
     id="path10" />
  <use
     xlink:href="#path10"
     style="fill:#ee3124"
     id="use12" />
  <use
     xlink:href="#path10"
     transform="matrix(1,0,0,-1,0,22.007)"
     style="fill:#b20838"
     id="use14" />
  <path
     d="M 28.99645,27 46.653748,-3 H 30.627682 L 49.762,29.508227 V -3 h 6.2725 V 20.881 H 66.344 M 69.84649,-1 V 27 H 76.1185 V 0.05 L 89.755498,21.953004 V -8.2317918 L 110.48971,27 H 91.202679 L 108.85862,-3"
     style="fill:none;stroke:#000000;stroke-width:2.63"
     clip-path="url(#clipPath6)"
     id="path16" />
  <path
     d="m 111.52,17.24 c -1.31,0 -2.37,1.05 -2.37,2.36 0,1.3 1.06,2.36 2.37,2.35 1.31,0 2.37,-1.05 2.37,-2.35 0,-1.3 -1.06,-2.35 -2.37,-2.36 z m 0,0.35 c 1.07,0 1.94,0.9 1.94,2.01 0,1.11 -0.87,2.01 -1.94,2.01 -1.08,0 -1.95,-0.9 -1.95,-2.01 0,-1.11 0.87,-2.01 1.95,-2.01 z m 0.14,0.63 c 0.32,0 0.69,0.06 0.86,0.35 0.14,0.25 0.14,0.57 0,0.83 -0.13,0.23 -0.39,0.34 -0.65,0.37 l 0.79,1.22 H 112.2 L 111.45,19.8 H 111 v 1.19 h -0.43 v -2.76 z m -0.18,1.22 c 0.17,0 0.35,0 0.51,-0.07 0.2,-0.09 0.24,-0.33 0.18,-0.53 -0.1,-0.16 -0.22,-0.23 -0.37,-0.25 -0.1,-0.01 -0.16,-0.02 -0.25,-0.02 h -0.52 v 0.88"
     id="path18" />
</svg>
