<?xml version="1.0" standalone="no"?>
<!DOCTYPE svg PUBLIC "-//W3C//DTD SVG 20010904//EN"
 "http://www.w3.org/TR/2001/REC-SVG-20010904/DTD/svg10.dtd">
<svg version="1.0" xmlns="http://www.w3.org/2000/svg"
 width="500.000000pt" height="500.000000pt" viewBox="0 0 500.000000 500.000000"
 preserveAspectRatio="xMidYMid meet">
<metadata>
Created by potrace 1.11, written by Peter Selinger 2001-2013
</metadata>
<g transform="translate(0.000000,500.000000) scale(0.100000,-0.100000)"
fill="#000000" stroke="none">
<path d="M2330 4994 c-19 -2 -78 -9 -130 -14 -282 -31 -586 -125 -850 -262
-602 -313 -1065 -875 -1249 -1518 -71 -248 -95 -427 -95 -700 0 -217 8 -311
45 -495 165 -823 747 -1520 1529 -1829 304 -120 577 -170 920 -170 217 0 311
8 495 45 648 130 1219 515 1590 1074 211 316 339 663 397 1070 21 149 16 503
-10 670 -85 549 -320 1013 -707 1401 -395 395 -896 642 -1455 714 -89 12 -419
21 -480 14z m525 -118 c589 -94 1116 -391 1488 -839 233 -281 403 -616 488
-962 52 -214 64 -317 64 -575 0 -258 -12 -361 -64 -575 -120 -490 -405 -946
-794 -1268 -281 -233 -616 -403 -962 -488 -214 -52 -317 -64 -575 -64 -258 0
-361 12 -575 64 -172 42 -309 92 -481 176 -479 235 -864 620 -1099 1099 -113
233 -181 450 -222 711 -25 154 -25 536 0 690 33 214 92 420 174 613 36 84 51
103 33 41 -6 -19 -19 -83 -30 -143 -23 -138 -18 -156 44 -156 54 0 182 64 464
233 247 148 366 208 424 214 42 5 48 3 64 -22 50 -77 -62 -319 -341 -740 -73
-110 -196 -286 -274 -392 -131 -178 -141 -195 -141 -236 0 -85 56 -227 106
-266 52 -41 86 -13 191 154 127 201 338 509 461 674 315 421 624 735 697 708
28 -11 16 -106 -23 -187 -78 -163 -245 -424 -462 -720 -234 -320 -256 -362
-246 -477 9 -115 58 -223 101 -223 27 0 92 69 230 245 374 476 782 913 1023
1096 66 50 104 60 110 29 1 -9 -31 -56 -73 -105 -373 -442 -504 -644 -555
-855 -24 -101 -26 -226 -5 -296 18 -60 73 -127 129 -156 55 -29 142 -29 216 0
115 45 362 224 543 394 l79 73 -4 48 -3 49 -75 -54 c-110 -79 -305 -205 -362
-234 -60 -30 -135 -35 -171 -11 -166 109 134 729 599 1241 167 184 202 226
208 252 8 30 -38 122 -91 184 -60 70 -107 55 -273 -90 -58 -51 -161 -138 -230
-194 -77 -63 -227 -208 -390 -377 -410 -424 -425 -438 -402 -399 11 19 86 148
167 285 80 138 185 328 232 423 76 151 88 181 91 236 3 49 0 71 -16 102 -37
72 -88 101 -144 82 -90 -31 -282 -167 -425 -303 -95 -89 -319 -343 -479 -542
-49 -62 -90 -110 -92 -109 -1 2 47 106 107 232 220 464 230 522 128 717 -37
71 -68 97 -116 97 -110 0 -435 -133 -704 -288 -111 -65 -116 -47 -16 51 70 69
82 90 37 66 -45 -24 -219 -162 -255 -203 l-36 -41 43 80 c62 117 177 286 273
400 336 400 812 688 1317 799 100 22 151 30 320 50 78 9 459 -3 555 -18z"/>
<path d="M4111 3228 c-214 -13 -608 -93 -839 -169 -109 -36 -166 -77 -245
-176 -135 -170 -200 -303 -169 -349 14 -22 49 -24 127 -9 100 19 334 89 403
120 59 27 60 39 6 61 -19 8 -34 19 -34 25 0 23 188 87 375 128 305 66 549 75
715 25 148 -44 183 -183 73 -290 -99 -96 -353 -176 -727 -229 l-49 -7 19 25
c10 14 83 97 162 186 78 88 142 166 142 172 0 15 -90 2 -160 -24 -89 -32 -178
-98 -295 -219 -61 -62 -122 -127 -136 -144 -25 -31 -27 -31 -219 -57 -219 -30
-243 -39 -248 -100 -2 -20 2 -46 8 -58 15 -28 83 -57 153 -65 31 -4 57 -8 57
-10 0 -2 -35 -50 -77 -106 -207 -275 -270 -431 -229 -572 29 -99 122 -173 267
-212 91 -24 305 -25 419 0 357 77 683 268 767 452 52 115 15 238 -96 316 -121
85 -366 155 -668 193 l-53 7 40 46 39 47 128 18 c531 74 891 244 1005 474 29
60 33 77 32 148 0 66 -5 89 -26 130 -89 172 -307 245 -667 223z m-417 -1223
c347 -57 473 -124 452 -239 -26 -135 -368 -296 -630 -296 -203 0 -338 121
-282 253 16 39 65 104 169 225 68 81 80 91 105 87 15 -3 98 -16 186 -30z"/>
</g>
</svg>
