<?xml version="1.0" encoding="utf-8"?>
<!-- Generator: Adobe Illustrator 21.0.1, SVG Export Plug-In . SVG Version: 6.00 Build 0)  -->
<svg version="1.1" id="Layer_1" xmlns="http://www.w3.org/2000/svg" xmlns:xlink="http://www.w3.org/1999/xlink" x="0px" y="0px"
	 viewBox="0 0 62.4 56.1" style="enable-background:new 0 0 62.4 56.1;" xml:space="preserve">
<style type="text/css">
	.st0{fill:url(#SVGID_1_);}
	.st1{fill:#FFFFFF;}
</style>
<g id="Layer_2">
	<g id="White">
		
			<linearGradient id="SVGID_1_" gradientUnits="userSpaceOnUse" x1="62.1603" y1="984.9905" x2="32.8103" y2="1004.8605" gradientTransform="matrix(1 0 0 1 0 -958)">
			<stop  offset="7.000000e-02" style="stop-color:#FFFFFF;stop-opacity:0.4"/>
			<stop  offset="1" style="stop-color:#FFFFFF"/>
		</linearGradient>
		<path class="st0" d="M59.7,18.8H40.9l-3.2,18.4h-13L9.4,55.4c0.5,0.4,1.1,0.7,1.8,0.7h40.7c1,0,1.8-0.7,2-1.7L59.7,18.8z"/>
		<path class="st1" d="M2,0C0.9,0,0,0.9,0,2c0,0.1,0,0.2,0,0.3l8.5,51.5c0.1,0.6,0.4,1.2,0.9,1.6l0,0c0.5,0.4,1.1,0.7,1.8,0.7
			L27,37.2h-2.2l-3.5-18.4h38.4l2.7-16.5c0.2-1.1-0.6-2.1-1.7-2.3c-0.1,0-0.2,0-0.3,0H2z"/>
	</g>
</g>
</svg>
