<svg id="Layer_1" data-name="Layer 1" xmlns="http://www.w3.org/2000/svg" viewBox="0 0 1203 317">
    <title>logo-login</title>
    <path
        d="M470.8,239.4a125.78,125.78,0,0,1-26.2-2.4c-7.4-1.6-13.6-4.2-18.5-7.8a32,32,0,0,1-10.9-14c-2.3-5.8-3.5-12.9-3.5-21.4V105.1h32.6v84.5a57.84,57.84,0,0,0,.8,10,13.52,13.52,0,0,0,3.4,7.1,17,17,0,0,0,8,4.4,55.65,55.65,0,0,0,14.4,1.5,54.29,54.29,0,0,0,14.3-1.5,17.07,17.07,0,0,0,7.9-4.4,13.52,13.52,0,0,0,3.4-7.1,57.84,57.84,0,0,0,.8-10V105.1h32.6v88.7c0,16.9-4.8,28.7-14.4,35.5C505.6,236,490.8,239.4,470.8,239.4Z"
        style="fill:#fdad00"></path>
    <path
        d="M679.5,176.3a128.15,128.15,0,0,1-2.9,29.1c-1.9,8-5.2,14.5-9.8,19.5a40.22,40.22,0,0,1-18.2,11c-7.5,2.3-16.9,3.5-28.1,3.5a64.63,64.63,0,0,1-19-2.4,36.8,36.8,0,0,1-12.8-6.6v48.9H556.1V163c0-11.7,1.2-21.5,3.5-29.3s6-14.2,11-19A43.69,43.69,0,0,1,590,104.3c7.9-2.1,17.4-3.1,28.4-3.1s20.1,1,27.8,3a40.55,40.55,0,0,1,18.9,10.4q7.35,7.35,10.8,19.5c2.3,8.1,3.4,18.3,3.4,30.4v11.8Zm-61.9,37a66,66,0,0,0,14.7-1.3,14.5,14.5,0,0,0,8.8-5.3c2.1-2.7,3.5-6.4,4.3-11.2a121.31,121.31,0,0,0,1.1-18.9V164a111.4,111.4,0,0,0-1.3-19.3c-.8-4.8-2.3-8.6-4.4-11.2a14.74,14.74,0,0,0-8.8-5.1,70.83,70.83,0,0,0-14.4-1.3,62.77,62.77,0,0,0-14.3,1.3,15.79,15.79,0,0,0-8.8,5c-2.2,2.5-3.7,6.1-4.5,10.9a115.9,115.9,0,0,0-1.3,18.7v17.8a80.58,80.58,0,0,0,1.4,16.2,21.64,21.64,0,0,0,4.6,10,17.05,17.05,0,0,0,8.8,5A61.47,61.47,0,0,0,617.6,213.3Z"
        style="fill:#fdad00"></path>
    <path
        d="M761.9,235.4c-11.7,0-21.4-1.1-29.2-3.3s-14-5.7-18.7-10.7-8-11.3-10-19.2-3-17.5-3-28.8V163a117.78,117.78,0,0,1,2.9-27.7,44.45,44.45,0,0,1,9.6-19.3,39.32,39.32,0,0,1,17.8-11.3c7.3-2.4,16.4-3.6,27.1-3.6a76,76,0,0,1,19.7,2.4c5.9,1.6,10.5,3.6,13.7,6.1V49.2h32.6V211.8c0,8.5-1.9,14.6-5.8,18.2s-10.9,5.4-21,5.4Zm29.9-26.1V156.2a66,66,0,0,0-1.3-14.7,16.52,16.52,0,0,0-4.6-8.8,20,20,0,0,0-9-4.4,70.83,70.83,0,0,0-14.4-1.3,62.13,62.13,0,0,0-14.5,1.4,15,15,0,0,0-8.6,5.3c-2.1,2.6-3.5,6.2-4.1,10.8a122.61,122.61,0,0,0-1,17.7V173a133,133,0,0,0,1.1,18.7c.7,4.8,2.2,8.4,4.3,11a16,16,0,0,0,8.8,5.3,64.64,64.64,0,0,0,14.7,1.4l28.6-.1Z"
        style="fill:#fdad00"></path>
    <path
        d="M963.7,211.8c0,8.9-2,15-6,18.4s-10.9,5.1-20.8,5.1H896c-17.9,0-30.5-3.3-38-10s-11.2-16.3-11.2-28.8V191c0-13.9,4.1-23.9,12.3-30.2s21-9.4,38.3-9.4a94.18,94.18,0,0,1,21.7,2.1c5.8,1.4,10.1,3.1,12.9,4.9V154a40,40,0,0,0-1.4-11.3,14.22,14.22,0,0,0-4.6-7.1,18.15,18.15,0,0,0-8.9-3.6,80.6,80.6,0,0,0-14.2-1H892.4c-3.8,0-7.7,0-11.7.1l-11.7.3c-3.8.1-7.4.1-10.5.1l5.3-26.3c4.7-.2,10.5-.3,17.5-.4s14.7-.1,23.1-.1c20.4,0,35.3,3.6,44.9,10.8s14.3,18.5,14.3,33.8v62.5Zm-31.6,0V191.5a27.28,27.28,0,0,0-.9-7.6,9.28,9.28,0,0,0-3.6-5.1,19,19,0,0,0-7.8-2.9,78.26,78.26,0,0,0-13.3-.9h-3.8c-9.5,0-16,1.2-19.3,3.5s-5,6.6-5,12.8v4.8c0,5.3,1.5,9.3,4.6,11.9s8.8,3.9,17.2,3.9l31.9-.1Z"
        style="fill:#fdad00"></path>
    <path
        d="M1062.9,235.4h-20.3c-10.5,0-19.2-.8-25.9-2.3s-12.1-4.1-16-7.9-6.6-8.8-8.1-15.2a105.21,105.21,0,0,1-2.3-23.8V74.8l32.6-5.3v35.6h46.9l-5.3,26.8h-41.6v52.6a68.83,68.83,0,0,0,.9,12.3,14.94,14.94,0,0,0,3.3,7.4,11.69,11.69,0,0,0,6.8,3.5,56.76,56.76,0,0,0,11.2.9h23.3Z"
        style="fill:#fdad00"></path>
    <path
        d="M1117.5,181.3a86.54,86.54,0,0,0,1,14.8c.7,3.8,2,6.9,4.1,9a16.54,16.54,0,0,0,8.6,4.5,69.76,69.76,0,0,0,14.5,1.3h20c7.5,0,16.8-.2,27.8-.5l-5,25.1c-4.7.2-8.9.3-12.5.4s-7.2.1-10.7.1h-21.1c-11.9,0-21.6-1.3-29.3-4s-13.7-6.5-18.2-11.5a43.35,43.35,0,0,1-9.3-18.4,104.64,104.64,0,0,1-2.6-24.9v-14a112,112,0,0,1,2.8-26.6,44.86,44.86,0,0,1,9.6-19.4c4.6-5.3,10.8-9.2,18.5-11.9s17.6-4,29.4-4c11,0,20.2,1.2,27.4,3.6A44.4,44.4,0,0,1,1190,115a36.12,36.12,0,0,1,9.4,15.4,66.36,66.36,0,0,1,2.8,19.4v4.3a75.5,75.5,0,0,1-1,13.9,19.18,19.18,0,0,1-3.4,8.4,11.52,11.52,0,0,1-6.1,4,35.25,35.25,0,0,1-9.3,1l-64.9-.1Zm27.1-55.7a56.87,56.87,0,0,0-13.8,1.4,15.56,15.56,0,0,0-8.3,5,20.46,20.46,0,0,0-4,9.8,96.69,96.69,0,0,0-1,15.7h53.9v-5.8a48.83,48.83,0,0,0-1.3-12.3,16.72,16.72,0,0,0-4.3-8,17.81,17.81,0,0,0-8.3-4.4A51.25,51.25,0,0,0,1144.6,125.6Z"
        style="fill:#fdad00"></path>
    <path
        d="M185.2,25.7V18.4C183,17.1,150.4.8,150.4.8s-33,16.3-35.3,17.7v7.2h0V150.2a214.58,214.58,0,0,0,1.5,28.1c1,7.3,2.8,13.2,5.3,17.6a20.67,20.67,0,0,0,10.6,9.2c4.5,1.7,10.4,2.6,17.6,2.6,7,0,12.9-.9,17.5-2.6a20.64,20.64,0,0,0,10.8-9.2c2.6-4.4,4.4-10.2,5.4-17.6a214.58,214.58,0,0,0,1.5-28.1l-.1-124.5Z"
        style="fill:#2c2d2b"></path>
    <path
        d="M241.8,47.1v94.1q0,36.6-3.8,60.5c-2.5,15.9-7.2,28.5-14,37.8s-16.2,15.8-28,19.5-27.1,5.5-45.8,5.5-34-1.8-45.8-5.5-21.2-10.2-28-19.5-11.5-21.9-14-37.8-3.8-36.1-3.8-60.5V46.9L2,75.1V140q0,42.45,5.9,75.6T30,271.4c10.8,15.1,25.8,26.6,45,34.3s44.3,11.6,75.2,11.6q45.75,0,74.9-11.6c19.4-7.7,34.5-19.2,45.3-34.3s18.1-33.7,22.1-55.8,5.9-47.3,5.9-75.6V75.7Z"
        style="fill:#fdad00"></path>
</svg>